#N canvas 499 70 3072 1784 12;
#X obj 214 90 notein;
#X floatatom 275 168 5 0 0 0 - - - 0;
#X floatatom 127 329 5 0 0 0 - - - 0;
#X obj 185 372 expr pow(2 \, $f1/12);
#X floatatom 190 420 5 0 0 0 - - - 0;
#X obj 233 443 *;
#X obj 571 249 openpanel;
#X obj 550 351 soundfiler;
#X floatatom 550 375 10 0 0 0 - - - 0;
#X floatatom 353 449 5 0 0 0 - - - 0;
#X obj 539 613 *~;
#X obj 539 637 tabread~ NoteData;
#X obj 540 680 *~ 0.5;
#X obj 535 729 dac~;
#X obj 720 639 tabplay~ NoteData;
#X obj 720 557 bng 19 250 50 0 empty empty empty 0 -10 0 12 #fcfcfc #000000 #000000;
#X msg 550 327 read -resize \$1 NoteData;
#X obj 570 184 bng 19 250 50 0 empty empty empty 0 -10 0 12 #fcfcfc #000000 #000000;
#X obj 72 39 tgl 15 0 empty empty empty 17 7 0 10 #fcfcfc #000000 #000000 0 1;
#X msg 72 59 \; pd dsp \$1;
#N canvas 0 50 450 250 (subpatch) 0;
#X array NoteData 223379 float 4;
#X coords 0 1 223378 -1 200 140 1;
#X restore 840 107 graph;
#X obj 157 215 stripnote;
#X obj 171 148 pack;
#X floatatom 223 140 5 0 0 0 - - - 0;
#X obj 295 596 vline~;
#X obj 200 779 snapshot~;
#X obj 446 533 metro 100;
#X obj 446 559 s bang;
#X obj 89 725 r bang;
#X floatatom 299 490 5 0 0 0 - - - 0;
#X obj 448 492 tgl 19 0 empty empty empty 0 -10 0 12 #fcfcfc #000000 #000000 0 1;
#X obj 162 827 hsl 162 19 0 127 0 0 empty empty empty -2 -10 0 12 #fcfcfc #000000 #000000 0 1;
#X obj 200 803 * 127;
#X obj 127 562 print;
#X msg 166 514 0 0 \, 1 \$1;
#X obj 517 335 bng 19 250 50 0 empty empty empty 0 -10 0 12 #fcfcfc #000000 #000000;
#X obj 158 478 * 1000;
#X obj 353 425 expr $f1/48000;
#X floatatom 91 139 5 0 0 0 - - - 0;
#X obj 112 266 expr 48-$f1;
#X msg 252 245 52;
#X connect 0 0 22 0;
#X connect 0 0 38 0;
#X connect 0 1 22 1;
#X connect 0 1 23 0;
#X connect 0 2 1 0;
#X connect 2 0 3 0;
#X connect 3 0 4 0;
#X connect 4 0 5 0;
#X connect 5 0 29 0;
#X connect 5 0 36 0;
#X connect 6 0 16 0;
#X connect 7 0 8 0;
#X connect 8 0 10 1;
#X connect 8 0 37 0;
#X connect 9 0 5 1;
#X connect 10 0 11 0;
#X connect 11 0 12 0;
#X connect 12 0 13 0;
#X connect 12 0 13 1;
#X connect 14 0 12 0;
#X connect 15 0 14 0;
#X connect 16 0 7 0;
#X connect 17 0 6 0;
#X connect 18 0 19 0;
#X connect 21 0 39 0;
#X connect 22 0 21 0;
#X connect 24 0 10 0;
#X connect 24 0 25 0;
#X connect 25 0 32 0;
#X connect 26 0 27 0;
#X connect 28 0 25 0;
#X connect 30 0 26 0;
#X connect 32 0 31 0;
#X connect 34 0 24 0;
#X connect 34 0 33 0;
#X connect 35 0 8 0;
#X connect 36 0 34 0;
#X connect 37 0 9 0;
#X connect 39 0 2 0;
#X connect 40 0 39 0;
