#N canvas 76 76 2560 1464 12;
#X obj 209 119 notein;
#X floatatom 188 171 5 0 0 0 - - - 0;
#X floatatom 229 169 5 0 0 0 - - - 0;
#X floatatom 275 168 5 0 0 0 - - - 0;
#X floatatom 190 373 5 0 0 0 - - - 0;
#X obj 190 396 expr pow(2 \, $f1/12);
#X floatatom 190 420 5 0 0 0 - - - 0;
#X obj 190 443 *;
#X floatatom 190 481 5 0 0 0 - - - 0;
#X obj 190 514 phasor~;
#X obj 571 249 openpanel;
#X obj 550 351 soundfiler;
#X floatatom 550 375 5 0 0 0 - - - 0;
#X obj 378 462 expr 44100/$f1;
#X floatatom 378 486 5 0 0 0 - - - 0;
#X obj 539 613 *~;
#X obj 539 637 tabread~ NoteData;
#X obj 540 680 *~ 0.5;
#X obj 535 729 dac~;
#X obj 720 639 tabplay~ NoteData;
#X obj 720 557 bng 19 250 50 0 empty empty empty 0 -10 0 12 #fcfcfc #000000 #000000;
#X obj 189 326 expr $f1-48;
#X msg 550 327 read -resize \$1 NoteData;
#X obj 570 184 bng 19 250 50 0 empty empty empty 0 -10 0 12 #fcfcfc #000000 #000000;
#X floatatom 212 284 5 0 0 0 - - - 0;
#X msg 212 246 48;
#X msg 283 495 0;
#X obj 72 39 tgl 15 0 empty empty empty 17 7 0 10 #fcfcfc #000000 #000000 0 1;
#X msg 72 59 \; pd dsp \$1;
#N canvas 0 50 450 250 (subpatch) 0;
#X array NoteData 223379 float 4;
#X coords 0 1 223378 -1 200 140 1;
#X restore 840 107 graph;
#X connect 0 0 1 0;
#X connect 0 1 2 0;
#X connect 0 2 3 0;
#X connect 4 0 5 0;
#X connect 5 0 6 0;
#X connect 6 0 7 0;
#X connect 7 0 8 0;
#X connect 8 0 9 0;
#X connect 9 0 15 0;
#X connect 10 0 22 0;
#X connect 11 0 12 0;
#X connect 12 0 13 0;
#X connect 12 0 15 1;
#X connect 13 0 14 0;
#X connect 14 0 7 1;
#X connect 15 0 16 0;
#X connect 16 0 17 0;
#X connect 17 0 18 0;
#X connect 17 0 18 1;
#X connect 19 0 17 0;
#X connect 20 0 19 0;
#X connect 21 0 4 0;
#X connect 22 0 11 0;
#X connect 23 0 10 0;
#X connect 24 0 21 0;
#X connect 25 0 24 0;
#X connect 26 0 8 0;
#X connect 27 0 28 0;
